<mxfile host="Electron" modified="2023-07-12T02:36:04.852Z" agent="Mozilla/5.0 (Windows NT 10.0; Win64; x64) AppleWebKit/537.36 (KHTML, like Gecko) draw.io/21.5.0 Chrome/112.0.5615.204 Electron/24.5.1 Safari/537.36" etag="tIT659xzRmcANwQhJ5cy" version="21.5.0" type="device">
  <diagram name="第 1 页" id="FklkeFN2GQYck-IhPiAI">
    <mxGraphModel dx="1717" dy="992" grid="1" gridSize="6" guides="1" tooltips="1" connect="1" arrows="1" fold="1" page="1" pageScale="1" pageWidth="1169" pageHeight="827" math="0" shadow="0">
      <root>
        <mxCell id="0" />
        <mxCell id="1" parent="0" />
        <mxCell id="Wm2ZC4gTrtieUDYn15wP-10" value="" style="rounded=0;whiteSpace=wrap;html=1;fillColor=#FFFFFF;strokeColor=#000000;" parent="1" vertex="1">
          <mxGeometry x="626.52" y="167" width="78" height="283.18" as="geometry" />
        </mxCell>
        <mxCell id="NY_3kWSDoknDq7br82wG-1" value="&lt;font style=&quot;font-size: 8px;&quot;&gt;issue_branch_target_i[31:0]&lt;/font&gt;" style="text;html=1;strokeColor=none;fillColor=none;align=center;verticalAlign=middle;whiteSpace=wrap;rounded=0;" parent="1" vertex="1">
          <mxGeometry x="216.45" y="195.92000000000002" width="60" height="10" as="geometry" />
        </mxCell>
        <mxCell id="NY_3kWSDoknDq7br82wG-2" value="" style="endArrow=classic;html=1;rounded=0;entryX=0.63;entryY=1.002;entryDx=0;entryDy=0;entryPerimeter=0;" parent="1" edge="1">
          <mxGeometry width="50" height="50" relative="1" as="geometry">
            <mxPoint x="192" y="210.45" as="sourcePoint" />
            <mxPoint x="302.85" y="210.14999999999998" as="targetPoint" />
          </mxGeometry>
        </mxCell>
        <object label="" id="NY_3kWSDoknDq7br82wG-3">
          <mxCell style="endArrow=classic;html=1;rounded=0;fillColor=#e51400;strokeColor=#FF0000;strokeWidth=2;" parent="1" edge="1">
            <mxGeometry width="50" height="50" relative="1" as="geometry">
              <mxPoint x="192" y="306.45" as="sourcePoint" />
              <mxPoint x="302.08" y="306.45000000000005" as="targetPoint" />
            </mxGeometry>
          </mxCell>
        </object>
        <mxCell id="NY_3kWSDoknDq7br82wG-4" value="&lt;font style=&quot;font-size: 8px;&quot;&gt;issue_exception_i[5:0]&lt;/font&gt;" style="text;html=1;strokeColor=none;fillColor=none;align=center;verticalAlign=middle;whiteSpace=wrap;rounded=0;" parent="1" vertex="1">
          <mxGeometry x="200.33" y="294.3500000000001" width="70" height="8" as="geometry" />
        </mxCell>
        <mxCell id="NY_3kWSDoknDq7br82wG-5" value="&lt;font style=&quot;&quot;&gt;&lt;font style=&quot;font-size: 8px;&quot;&gt;issue_opcode_i[31:0]&lt;/font&gt;&lt;br&gt;&lt;/font&gt;" style="text;html=1;strokeColor=none;fillColor=none;align=center;verticalAlign=middle;whiteSpace=wrap;rounded=0;" parent="1" vertex="1">
          <mxGeometry x="207.45" y="223.54000000000002" width="53.75" height="5.1" as="geometry" />
        </mxCell>
        <mxCell id="NY_3kWSDoknDq7br82wG-6" value="&lt;font style=&quot;font-size: 8px;&quot;&gt;issue_operand_ra_i[31:0]&lt;/font&gt;" style="text;html=1;strokeColor=none;fillColor=none;align=center;verticalAlign=middle;whiteSpace=wrap;rounded=0;" parent="1" vertex="1">
          <mxGeometry x="211.33" y="247.00000000000006" width="60" height="6" as="geometry" />
        </mxCell>
        <mxCell id="NY_3kWSDoknDq7br82wG-7" value="&lt;font style=&quot;font-size: 8px;&quot;&gt;issue_operand_rb_i[31:0]&lt;/font&gt;" style="text;html=1;strokeColor=none;fillColor=none;align=center;verticalAlign=middle;whiteSpace=wrap;rounded=0;" parent="1" vertex="1">
          <mxGeometry x="195.07999999999998" y="269.18" width="90.5" height="10" as="geometry" />
        </mxCell>
        <mxCell id="NY_3kWSDoknDq7br82wG-8" value="" style="endArrow=classic;html=1;rounded=0;" parent="1" edge="1">
          <mxGeometry width="50" height="50" relative="1" as="geometry">
            <mxPoint x="192" y="282.45" as="sourcePoint" />
            <mxPoint x="302.33000000000004" y="282.19" as="targetPoint" />
          </mxGeometry>
        </mxCell>
        <mxCell id="NY_3kWSDoknDq7br82wG-9" value="" style="endArrow=classic;html=1;rounded=0;entryX=0.517;entryY=1.002;entryDx=0;entryDy=0;entryPerimeter=0;" parent="1" edge="1">
          <mxGeometry width="50" height="50" relative="1" as="geometry">
            <mxPoint x="192" y="186.45" as="sourcePoint" />
            <mxPoint x="302.33000000000004" y="186.20299999999997" as="targetPoint" />
          </mxGeometry>
        </mxCell>
        <mxCell id="NY_3kWSDoknDq7br82wG-10" value="&lt;font style=&quot;font-size: 8px;&quot;&gt;issue_pc_i[31:0]&lt;/font&gt;" style="text;html=1;strokeColor=none;fillColor=none;align=center;verticalAlign=middle;whiteSpace=wrap;rounded=0;" parent="1" vertex="1">
          <mxGeometry x="197" y="173.13000000000002" width="55.25" height="8" as="geometry" />
        </mxCell>
        <mxCell id="NY_3kWSDoknDq7br82wG-11" value="" style="rounded=0;whiteSpace=wrap;html=1;direction=south;fillColor=#FFFFFF;strokeColor=#000000;" parent="1" vertex="1">
          <mxGeometry x="302.85" y="169.05" width="77.15" height="153.95" as="geometry" />
        </mxCell>
        <mxCell id="NY_3kWSDoknDq7br82wG-12" value="&lt;font style=&quot;font-size: 8px;&quot;&gt;pc_e1_q[31:0]&lt;/font&gt;" style="text;html=1;strokeColor=none;fillColor=none;align=center;verticalAlign=middle;whiteSpace=wrap;rounded=0;" parent="1" vertex="1">
          <mxGeometry x="390.99999999999994" y="162.5" width="32.5" height="7" as="geometry" />
        </mxCell>
        <mxCell id="NY_3kWSDoknDq7br82wG-13" value="&lt;font style=&quot;font-size: 8px;&quot;&gt;npc_e1_q[31:0]&lt;/font&gt;" style="text;html=1;strokeColor=none;fillColor=none;align=center;verticalAlign=middle;whiteSpace=wrap;rounded=0;" parent="1" vertex="1">
          <mxGeometry x="394.21999999999997" y="185.68000000000004" width="30.5" height="8" as="geometry" />
        </mxCell>
        <mxCell id="NY_3kWSDoknDq7br82wG-14" value="&lt;font style=&quot;font-size: 8px;&quot;&gt;opcode_e1_q[31:0]&lt;/font&gt;" style="text;html=1;strokeColor=none;fillColor=none;align=center;verticalAlign=middle;whiteSpace=wrap;rounded=0;" parent="1" vertex="1">
          <mxGeometry x="395.21999999999997" y="283.44000000000005" width="41.75" height="5" as="geometry" />
        </mxCell>
        <mxCell id="NY_3kWSDoknDq7br82wG-15" value="&lt;font style=&quot;font-size: 8px;&quot;&gt;operand_ra_e1_q[31:0]&lt;/font&gt;" style="text;html=1;strokeColor=none;fillColor=none;align=center;verticalAlign=middle;whiteSpace=wrap;rounded=0;" parent="1" vertex="1">
          <mxGeometry x="393.21999999999997" y="235.46" width="60" height="4" as="geometry" />
        </mxCell>
        <mxCell id="NY_3kWSDoknDq7br82wG-16" value="&lt;font style=&quot;font-size: 8px;&quot;&gt;operand_rb_e1_q[31:0]&lt;/font&gt;" style="text;html=1;strokeColor=none;fillColor=none;align=center;verticalAlign=middle;whiteSpace=wrap;rounded=0;" parent="1" vertex="1">
          <mxGeometry x="393.21999999999997" y="210.97000000000006" width="60" height="7" as="geometry" />
        </mxCell>
        <mxCell id="NY_3kWSDoknDq7br82wG-17" value="&lt;font style=&quot;font-size: 8px;&quot;&gt;ctrl_e1_q[`PCINFO_W-1:0]&lt;/font&gt;" style="text;html=1;strokeColor=none;fillColor=none;align=center;verticalAlign=middle;whiteSpace=wrap;rounded=0;" parent="1" vertex="1">
          <mxGeometry x="375.85" y="305.05" width="107.15" height="8" as="geometry" />
        </mxCell>
        <mxCell id="NY_3kWSDoknDq7br82wG-18" value="address" style="text;html=1;strokeColor=none;fillColor=none;align=center;verticalAlign=middle;whiteSpace=wrap;rounded=0;" parent="1" vertex="1">
          <mxGeometry x="314.41999999999996" y="239.46" width="54" height="12" as="geometry" />
        </mxCell>
        <mxCell id="NY_3kWSDoknDq7br82wG-19" value="&lt;font style=&quot;font-size: 8px;&quot;&gt;exception_e1_q[`EXC-1:0]&lt;/font&gt;" style="text;html=1;strokeColor=none;fillColor=none;align=center;verticalAlign=middle;whiteSpace=wrap;rounded=0;" parent="1" vertex="1">
          <mxGeometry x="376.85" y="257.1" width="103.15" height="8" as="geometry" />
        </mxCell>
        <object label="" id="NY_3kWSDoknDq7br82wG-20">
          <mxCell style="endArrow=classic;html=1;rounded=0;entryX=0.702;entryY=1.01;entryDx=0;entryDy=0;entryPerimeter=0;" parent="1" edge="1">
            <mxGeometry width="50" height="50" relative="1" as="geometry">
              <mxPoint x="192" y="234.45" as="sourcePoint" />
              <mxPoint x="302.25" y="234.44799999999992" as="targetPoint" />
            </mxGeometry>
          </mxCell>
        </object>
        <mxCell id="NY_3kWSDoknDq7br82wG-21" value="" style="endArrow=classic;html=1;rounded=0;" parent="1" edge="1">
          <mxGeometry width="50" height="50" relative="1" as="geometry">
            <mxPoint x="192" y="258.45" as="sourcePoint" />
            <mxPoint x="302.5" y="258.47999999999996" as="targetPoint" />
          </mxGeometry>
        </mxCell>
        <mxCell id="NY_3kWSDoknDq7br82wG-22" value="" style="endArrow=classic;html=1;rounded=0;fontSize=11;" parent="1" edge="1">
          <mxGeometry width="50" height="50" relative="1" as="geometry">
            <mxPoint x="380" y="173.18" as="sourcePoint" />
            <mxPoint x="626.52" y="173.37" as="targetPoint" />
          </mxGeometry>
        </mxCell>
        <mxCell id="NY_3kWSDoknDq7br82wG-23" value="" style="endArrow=classic;html=1;rounded=0;fontSize=11;entryX=-0.012;entryY=0.135;entryDx=0;entryDy=0;entryPerimeter=0;" parent="1" edge="1">
          <mxGeometry width="50" height="50" relative="1" as="geometry">
            <mxPoint x="380" y="198.18" as="sourcePoint" />
            <mxPoint x="625.584" y="196.50130000000001" as="targetPoint" />
          </mxGeometry>
        </mxCell>
        <mxCell id="NY_3kWSDoknDq7br82wG-24" value="" style="endArrow=classic;html=1;rounded=0;fontSize=11;" parent="1" edge="1">
          <mxGeometry width="50" height="50" relative="1" as="geometry">
            <mxPoint x="380" y="221.18" as="sourcePoint" />
            <mxPoint x="626.52" y="221.37" as="targetPoint" />
          </mxGeometry>
        </mxCell>
        <mxCell id="NY_3kWSDoknDq7br82wG-25" value="" style="endArrow=classic;html=1;rounded=0;fontSize=11;" parent="1" edge="1">
          <mxGeometry width="50" height="50" relative="1" as="geometry">
            <mxPoint x="380" y="245.18" as="sourcePoint" />
            <mxPoint x="626.52" y="245.37" as="targetPoint" />
          </mxGeometry>
        </mxCell>
        <mxCell id="NY_3kWSDoknDq7br82wG-26" value="" style="endArrow=classic;html=1;rounded=0;fontSize=11;strokeColor=#FF0000;strokeWidth=2;" parent="1" edge="1">
          <mxGeometry width="50" height="50" relative="1" as="geometry">
            <mxPoint x="380" y="269.18" as="sourcePoint" />
            <mxPoint x="626.52" y="269.37" as="targetPoint" />
          </mxGeometry>
        </mxCell>
        <mxCell id="NY_3kWSDoknDq7br82wG-27" value="" style="endArrow=classic;html=1;rounded=0;fontSize=11;" parent="1" edge="1">
          <mxGeometry width="50" height="50" relative="1" as="geometry">
            <mxPoint x="380" y="294.18" as="sourcePoint" />
            <mxPoint x="626.52" y="293.37" as="targetPoint" />
          </mxGeometry>
        </mxCell>
        <mxCell id="NY_3kWSDoknDq7br82wG-28" value="" style="endArrow=classic;html=1;rounded=0;fontSize=11;entryX=1.038;entryY=0.675;entryDx=0;entryDy=0;entryPerimeter=0;" parent="1" edge="1" target="p-W_HCnKUesgTFCDDKNF-8">
          <mxGeometry width="50" height="50" relative="1" as="geometry">
            <mxPoint x="398" y="318.18" as="sourcePoint" />
            <mxPoint x="368" y="396.18" as="targetPoint" />
            <Array as="points">
              <mxPoint x="398" y="360" />
            </Array>
          </mxGeometry>
        </mxCell>
        <object label="" id="NY_3kWSDoknDq7br82wG-29">
          <mxCell style="endArrow=classic;html=1;rounded=0;" parent="1" edge="1">
            <mxGeometry width="50" height="50" relative="1" as="geometry">
              <mxPoint x="470" y="344.18" as="sourcePoint" />
              <mxPoint x="626.52" y="343.93" as="targetPoint" />
            </mxGeometry>
          </mxCell>
        </object>
        <mxCell id="NY_3kWSDoknDq7br82wG-30" value="&lt;font style=&quot;font-size: 8px;&quot;&gt;alu_result_e1_i[31:0]&lt;/font&gt;" style="text;html=1;strokeColor=none;fillColor=none;align=center;verticalAlign=middle;whiteSpace=wrap;rounded=0;" parent="1" vertex="1">
          <mxGeometry x="547" y="431.24" width="60" height="3.55" as="geometry" />
        </mxCell>
        <mxCell id="NY_3kWSDoknDq7br82wG-31" value="&lt;font style=&quot;font-size: 8px;&quot;&gt;csr_result_exception_e1_i[5:0]&lt;/font&gt;" style="text;html=1;strokeColor=none;fillColor=none;align=center;verticalAlign=middle;whiteSpace=wrap;rounded=0;" parent="1" vertex="1">
          <mxGeometry x="530.85" y="357.62" width="60" height="4.11" as="geometry" />
        </mxCell>
        <mxCell id="NY_3kWSDoknDq7br82wG-32" value="&lt;font style=&quot;font-size: 8px;&quot;&gt;csr_result_value_e1_i[31:0]&lt;/font&gt;" style="text;html=1;strokeColor=none;fillColor=none;align=center;verticalAlign=middle;whiteSpace=wrap;rounded=0;" parent="1" vertex="1">
          <mxGeometry x="536" y="379" width="60" height="10" as="geometry" />
        </mxCell>
        <mxCell id="NY_3kWSDoknDq7br82wG-33" value="&lt;font style=&quot;font-size: 8px;&quot;&gt;csr_result_wdata_e1_i[31:0]&lt;/font&gt;" style="text;html=1;strokeColor=none;fillColor=none;align=center;verticalAlign=middle;whiteSpace=wrap;rounded=0;" parent="1" vertex="1">
          <mxGeometry x="534.9999999999999" y="330.90999999999997" width="60" height="10" as="geometry" />
        </mxCell>
        <mxCell id="NY_3kWSDoknDq7br82wG-34" value="&lt;font style=&quot;font-size: 8px;&quot;&gt;div_result_i[31:0]&lt;/font&gt;" style="text;html=1;strokeColor=none;fillColor=none;align=center;verticalAlign=middle;whiteSpace=wrap;rounded=0;" parent="1" vertex="1">
          <mxGeometry x="557" y="403.17999999999995" width="55" height="10.12" as="geometry" />
        </mxCell>
        <mxCell id="NY_3kWSDoknDq7br82wG-42" value="&lt;font style=&quot;font-size: 8px;&quot;&gt;&lt;font style=&quot;font-size: 8px;&quot;&gt;ctrl_e2_q&lt;/font&gt;[`PCINFO_W-1:0]&lt;/font&gt;" style="text;html=1;strokeColor=none;fillColor=none;align=center;verticalAlign=middle;whiteSpace=wrap;rounded=0;" parent="1" vertex="1">
          <mxGeometry x="705.52" y="284.18" width="102.74" height="6" as="geometry" />
        </mxCell>
        <mxCell id="NY_3kWSDoknDq7br82wG-43" value="&lt;font style=&quot;font-size: 8px;&quot;&gt;csr_wdata_e2_q[31:0]&lt;/font&gt;" style="text;html=1;strokeColor=none;fillColor=none;align=center;verticalAlign=middle;whiteSpace=wrap;rounded=0;" parent="1" vertex="1">
          <mxGeometry x="730.97" y="211.81" width="36" height="6.37" as="geometry" />
        </mxCell>
        <mxCell id="NY_3kWSDoknDq7br82wG-44" value="&lt;font style=&quot;font-size: 8px;&quot;&gt;pc_e2_q[31:0]&lt;/font&gt;" style="text;html=1;strokeColor=none;fillColor=none;align=center;verticalAlign=middle;whiteSpace=wrap;rounded=0;" parent="1" vertex="1">
          <mxGeometry x="723.2200000000001" y="165.22000000000003" width="24" height="3.78" as="geometry" />
        </mxCell>
        <mxCell id="NY_3kWSDoknDq7br82wG-45" value="&lt;font style=&quot;font-size: 8px;&quot;&gt;npc_e2_q[31:0]&lt;/font&gt;" style="text;html=1;strokeColor=none;fillColor=none;align=center;verticalAlign=middle;whiteSpace=wrap;rounded=0;" parent="1" vertex="1">
          <mxGeometry x="725.2199999999999" y="189.68" width="24" height="3.87" as="geometry" />
        </mxCell>
        <mxCell id="NY_3kWSDoknDq7br82wG-46" value="&lt;font style=&quot;font-size: 8px;&quot;&gt;opcode_e2_q[31:0]&lt;/font&gt;" style="text;html=1;strokeColor=none;fillColor=none;align=center;verticalAlign=middle;whiteSpace=wrap;rounded=0;" parent="1" vertex="1">
          <mxGeometry x="720.72" y="308.48" width="46.25" height="5.15" as="geometry" />
        </mxCell>
        <mxCell id="NY_3kWSDoknDq7br82wG-47" value="&lt;font style=&quot;font-size: 8px;&quot;&gt;operand_ra_e2_q[31:0]&lt;/font&gt;" style="text;html=1;strokeColor=none;fillColor=none;align=center;verticalAlign=middle;whiteSpace=wrap;rounded=0;" parent="1" vertex="1">
          <mxGeometry x="742.47" y="235.4099999999999" width="19" height="7.05" as="geometry" />
        </mxCell>
        <mxCell id="NY_3kWSDoknDq7br82wG-48" value="&lt;font style=&quot;font-size: 8px;&quot;&gt;operand_rb_e2_q[31:0]&lt;/font&gt;" style="text;html=1;strokeColor=none;fillColor=none;align=center;verticalAlign=middle;whiteSpace=wrap;rounded=0;" parent="1" vertex="1">
          <mxGeometry x="731.97" y="261.8100000000001" width="38" height="2.58" as="geometry" />
        </mxCell>
        <mxCell id="NY_3kWSDoknDq7br82wG-49" value="&lt;font style=&quot;font-size: 8px;&quot;&gt;result_e2_q[31:0]&lt;/font&gt;" style="text;html=1;strokeColor=none;fillColor=none;align=center;verticalAlign=middle;whiteSpace=wrap;rounded=0;" parent="1" vertex="1">
          <mxGeometry x="721.2199999999998" y="357.7700000000001" width="38" height="3.63" as="geometry" />
        </mxCell>
        <mxCell id="NY_3kWSDoknDq7br82wG-50" value="&lt;font style=&quot;font-size: 8px;&quot;&gt;exception_e2_q[`EXC-1:0]&lt;/font&gt;" style="text;html=1;strokeColor=none;fillColor=none;align=center;verticalAlign=middle;whiteSpace=wrap;rounded=0;" parent="1" vertex="1">
          <mxGeometry x="706.51" y="333.91" width="98.49" height="2.26" as="geometry" />
        </mxCell>
        <object label="" id="NY_3kWSDoknDq7br82wG-58">
          <mxCell style="endArrow=classic;html=1;rounded=0;" parent="1" edge="1">
            <mxGeometry width="50" height="50" relative="1" as="geometry">
              <mxPoint x="470" y="368.18" as="sourcePoint" />
              <mxPoint x="626.52" y="367.93" as="targetPoint" />
            </mxGeometry>
          </mxCell>
        </object>
        <object label="" id="NY_3kWSDoknDq7br82wG-59">
          <mxCell style="endArrow=classic;html=1;rounded=0;" parent="1" edge="1">
            <mxGeometry width="50" height="50" relative="1" as="geometry">
              <mxPoint x="470" y="392.18" as="sourcePoint" />
              <mxPoint x="626.52" y="391.93" as="targetPoint" />
            </mxGeometry>
          </mxCell>
        </object>
        <object label="" id="NY_3kWSDoknDq7br82wG-60">
          <mxCell style="endArrow=classic;html=1;rounded=0;" parent="1" edge="1">
            <mxGeometry width="50" height="50" relative="1" as="geometry">
              <mxPoint x="470" y="416.18" as="sourcePoint" />
              <mxPoint x="626.52" y="415.93" as="targetPoint" />
            </mxGeometry>
          </mxCell>
        </object>
        <object label="" id="NY_3kWSDoknDq7br82wG-61">
          <mxCell style="endArrow=classic;html=1;rounded=0;" parent="1" edge="1">
            <mxGeometry width="50" height="50" relative="1" as="geometry">
              <mxPoint x="470" y="440.18" as="sourcePoint" />
              <mxPoint x="626.52" y="439.93" as="targetPoint" />
            </mxGeometry>
          </mxCell>
        </object>
        <object label="" id="NY_3kWSDoknDq7br82wG-62">
          <mxCell style="endArrow=classic;html=1;rounded=0;" parent="1" edge="1">
            <mxGeometry width="50" height="50" relative="1" as="geometry">
              <mxPoint x="704.52" y="174" as="sourcePoint" />
              <mxPoint x="920.52" y="174" as="targetPoint" />
            </mxGeometry>
          </mxCell>
        </object>
        <object label="" id="NY_3kWSDoknDq7br82wG-63">
          <mxCell style="endArrow=classic;html=1;rounded=0;" parent="1" edge="1">
            <mxGeometry width="50" height="50" relative="1" as="geometry">
              <mxPoint x="704.52" y="198" as="sourcePoint" />
              <mxPoint x="920.52" y="198" as="targetPoint" />
            </mxGeometry>
          </mxCell>
        </object>
        <object label="" id="NY_3kWSDoknDq7br82wG-64">
          <mxCell style="endArrow=classic;html=1;rounded=0;" parent="1" edge="1">
            <mxGeometry width="50" height="50" relative="1" as="geometry">
              <mxPoint x="704.52" y="222" as="sourcePoint" />
              <mxPoint x="920.52" y="222" as="targetPoint" />
            </mxGeometry>
          </mxCell>
        </object>
        <object label="" id="NY_3kWSDoknDq7br82wG-65">
          <mxCell style="endArrow=classic;html=1;rounded=0;" parent="1" edge="1">
            <mxGeometry width="50" height="50" relative="1" as="geometry">
              <mxPoint x="704.52" y="246" as="sourcePoint" />
              <mxPoint x="920.52" y="246" as="targetPoint" />
            </mxGeometry>
          </mxCell>
        </object>
        <object label="" id="NY_3kWSDoknDq7br82wG-66">
          <mxCell style="endArrow=classic;html=1;rounded=0;" parent="1" edge="1">
            <mxGeometry width="50" height="50" relative="1" as="geometry">
              <mxPoint x="704.52" y="270" as="sourcePoint" />
              <mxPoint x="920.52" y="270" as="targetPoint" />
            </mxGeometry>
          </mxCell>
        </object>
        <object label="" id="NY_3kWSDoknDq7br82wG-67">
          <mxCell style="endArrow=classic;html=1;rounded=0;" parent="1" edge="1">
            <mxGeometry width="50" height="50" relative="1" as="geometry">
              <mxPoint x="704.52" y="294" as="sourcePoint" />
              <mxPoint x="920.52" y="294" as="targetPoint" />
            </mxGeometry>
          </mxCell>
        </object>
        <object label="" id="NY_3kWSDoknDq7br82wG-68">
          <mxCell style="endArrow=classic;html=1;rounded=0;" parent="1" edge="1">
            <mxGeometry width="50" height="50" relative="1" as="geometry">
              <mxPoint x="704.52" y="318" as="sourcePoint" />
              <mxPoint x="920.52" y="318" as="targetPoint" />
            </mxGeometry>
          </mxCell>
        </object>
        <object label="" id="NY_3kWSDoknDq7br82wG-69">
          <mxCell style="endArrow=classic;html=1;rounded=0;strokeWidth=2;strokeColor=#FF0000;" parent="1" edge="1">
            <mxGeometry width="50" height="50" relative="1" as="geometry">
              <mxPoint x="704.52" y="342" as="sourcePoint" />
              <mxPoint x="920.52" y="342" as="targetPoint" />
            </mxGeometry>
          </mxCell>
        </object>
        <object label="" id="NY_3kWSDoknDq7br82wG-70">
          <mxCell style="endArrow=classic;html=1;rounded=0;" parent="1" edge="1">
            <mxGeometry width="50" height="50" relative="1" as="geometry">
              <mxPoint x="704.52" y="366" as="sourcePoint" />
              <mxPoint x="920.52" y="366" as="targetPoint" />
            </mxGeometry>
          </mxCell>
        </object>
        <mxCell id="NY_3kWSDoknDq7br82wG-71" value="&lt;font style=&quot;&quot;&gt;&lt;font style=&quot;font-size: 8px;&quot;&gt;mem_result_e2_i[5:0]&lt;/font&gt;&lt;br&gt;&lt;/font&gt;" style="text;html=1;strokeColor=none;fillColor=none;align=center;verticalAlign=middle;whiteSpace=wrap;rounded=0;" parent="1" vertex="1">
          <mxGeometry x="836" y="380.0000000000001" width="67.5" height="7" as="geometry" />
        </mxCell>
        <mxCell id="NY_3kWSDoknDq7br82wG-72" value="&lt;font style=&quot;font-size: 8px;&quot;&gt;mul_result_e2_i[31:0]&lt;/font&gt;" style="text;html=1;strokeColor=none;fillColor=none;align=center;verticalAlign=middle;whiteSpace=wrap;rounded=0;" parent="1" vertex="1">
          <mxGeometry x="830.88" y="402.0000000000001" width="77.75" height="8.9" as="geometry" />
        </mxCell>
        <mxCell id="NY_3kWSDoknDq7br82wG-73" value="" style="rounded=0;whiteSpace=wrap;html=1;fillColor=#FFFFFF;strokeColor=#000000;" parent="1" vertex="1">
          <mxGeometry x="920.52" y="165.63" width="75" height="295.37" as="geometry" />
        </mxCell>
        <mxCell id="NY_3kWSDoknDq7br82wG-74" value="Writeback/&lt;br&gt;Commit" style="text;html=1;strokeColor=none;fillColor=none;align=center;verticalAlign=middle;whiteSpace=wrap;rounded=0;" parent="1" vertex="1">
          <mxGeometry x="928.02" y="288.44" width="60" height="30" as="geometry" />
        </mxCell>
        <mxCell id="NY_3kWSDoknDq7br82wG-83" value="&lt;font style=&quot;font-size: 8px;&quot;&gt;csr_wdata_wb_o[31:0]&lt;/font&gt;" style="text;html=1;strokeColor=none;fillColor=none;align=center;verticalAlign=middle;whiteSpace=wrap;rounded=0;" parent="1" vertex="1">
          <mxGeometry x="1019" y="332.91" width="38" height="4.5" as="geometry" />
        </mxCell>
        <mxCell id="NY_3kWSDoknDq7br82wG-84" value="&lt;font style=&quot;font-size: 8px;&quot;&gt;pc_wb_o[31:0]&lt;/font&gt;" style="text;html=1;strokeColor=none;fillColor=none;align=center;verticalAlign=middle;whiteSpace=wrap;rounded=0;" parent="1" vertex="1">
          <mxGeometry x="1003.9999999999999" y="162.00000000000006" width="38" height="10" as="geometry" />
        </mxCell>
        <mxCell id="NY_3kWSDoknDq7br82wG-86" value="&lt;font style=&quot;font-size: 8px;&quot;&gt;operand_ra_wb_o[31:0]&lt;/font&gt;" style="text;html=1;strokeColor=none;fillColor=none;align=center;verticalAlign=middle;whiteSpace=wrap;rounded=0;" parent="1" vertex="1">
          <mxGeometry x="1020.9999999999999" y="282.6700000000001" width="38" height="7.77" as="geometry" />
        </mxCell>
        <mxCell id="NY_3kWSDoknDq7br82wG-87" value="&lt;font style=&quot;font-size: 8px;&quot;&gt;operand_rb_wb_o[31:0]&lt;/font&gt;" style="text;html=1;strokeColor=none;fillColor=none;align=center;verticalAlign=middle;whiteSpace=wrap;rounded=0;" parent="1" vertex="1">
          <mxGeometry x="1021" y="306.05000000000024" width="38" height="10" as="geometry" />
        </mxCell>
        <mxCell id="NY_3kWSDoknDq7br82wG-88" value="&lt;font style=&quot;font-size: 8px;&quot;&gt;result_wb_o[31:0]&lt;/font&gt;" style="text;html=1;strokeColor=none;fillColor=none;align=center;verticalAlign=middle;whiteSpace=wrap;rounded=0;" parent="1" vertex="1">
          <mxGeometry x="1009.4999999999999" y="189.22999999999996" width="38" height="3" as="geometry" />
        </mxCell>
        <mxCell id="NY_3kWSDoknDq7br82wG-89" value="&lt;font style=&quot;font-size: 8px;&quot;&gt;exception_wb_o[`EXC-1:0]&lt;/font&gt;" style="text;html=1;strokeColor=none;fillColor=none;align=center;verticalAlign=middle;whiteSpace=wrap;rounded=0;" parent="1" vertex="1">
          <mxGeometry x="994" y="236.63000000000005" width="102.37" height="5.83" as="geometry" />
        </mxCell>
        <mxCell id="NY_3kWSDoknDq7br82wG-90" value="&lt;font style=&quot;font-size: 8px;&quot;&gt;rd_wb_o[4:0]&lt;/font&gt;" style="text;html=1;strokeColor=none;fillColor=none;align=center;verticalAlign=middle;whiteSpace=wrap;rounded=0;" parent="1" vertex="1">
          <mxGeometry x="1000.9999999999999" y="209.96999999999997" width="38" height="10" as="geometry" />
        </mxCell>
        <mxCell id="NY_3kWSDoknDq7br82wG-91" value="&lt;font style=&quot;font-size: 8px;&quot;&gt;opcode_wb_o[31:0]&lt;/font&gt;" style="text;html=1;strokeColor=none;fillColor=none;align=center;verticalAlign=middle;whiteSpace=wrap;rounded=0;" parent="1" vertex="1">
          <mxGeometry x="1012.9999999999999" y="258.1000000000001" width="38" height="10" as="geometry" />
        </mxCell>
        <object label="" id="NY_3kWSDoknDq7br82wG-94">
          <mxCell style="endArrow=classic;html=1;rounded=0;" parent="1" edge="1">
            <mxGeometry width="50" height="50" relative="1" as="geometry">
              <mxPoint x="740" y="426.18" as="sourcePoint" />
              <mxPoint x="920.52" y="390" as="targetPoint" />
              <Array as="points">
                <mxPoint x="740" y="390.18" />
              </Array>
            </mxGeometry>
          </mxCell>
        </object>
        <object label="" id="NY_3kWSDoknDq7br82wG-95">
          <mxCell style="endArrow=classic;html=1;rounded=0;exitX=1.001;exitY=0.257;exitDx=0;exitDy=0;exitPerimeter=0;" parent="1" source="Wm2ZC4gTrtieUDYn15wP-9" edge="1">
            <mxGeometry width="50" height="50" relative="1" as="geometry">
              <mxPoint x="824.52" y="414" as="sourcePoint" />
              <mxPoint x="920.52" y="414" as="targetPoint" />
              <Array as="points">
                <mxPoint x="758" y="498.18" />
                <mxPoint x="758" y="414.18" />
              </Array>
            </mxGeometry>
          </mxCell>
        </object>
        <object label="" id="NY_3kWSDoknDq7br82wG-104">
          <mxCell style="endArrow=classic;html=1;rounded=0;" parent="1" edge="1">
            <mxGeometry width="50" height="50" relative="1" as="geometry">
              <mxPoint x="995.52" y="173.99999999999994" as="sourcePoint" />
              <mxPoint x="1112" y="174.18" as="targetPoint" />
            </mxGeometry>
          </mxCell>
        </object>
        <object label="" id="NY_3kWSDoknDq7br82wG-105">
          <mxCell style="endArrow=classic;html=1;rounded=0;" parent="1" edge="1">
            <mxGeometry width="50" height="50" relative="1" as="geometry">
              <mxPoint x="995.52" y="197.94000000000005" as="sourcePoint" />
              <mxPoint x="1112" y="198.18" as="targetPoint" />
            </mxGeometry>
          </mxCell>
        </object>
        <object label="" id="NY_3kWSDoknDq7br82wG-106">
          <mxCell style="endArrow=classic;html=1;rounded=0;" parent="1" edge="1">
            <mxGeometry width="50" height="50" relative="1" as="geometry">
              <mxPoint x="995.52" y="221.23000000000008" as="sourcePoint" />
              <mxPoint x="1112" y="222.18" as="targetPoint" />
            </mxGeometry>
          </mxCell>
        </object>
        <object label="" id="NY_3kWSDoknDq7br82wG-107">
          <mxCell style="endArrow=classic;html=1;rounded=0;fillColor=#e51400;strokeColor=#FF0000;strokeWidth=2;" parent="1" edge="1">
            <mxGeometry width="50" height="50" relative="1" as="geometry">
              <mxPoint x="995.5200000000001" y="245.44" as="sourcePoint" />
              <mxPoint x="144" y="240" as="targetPoint" />
              <Array as="points">
                <mxPoint x="1128" y="246" />
                <mxPoint x="1128" y="120" />
                <mxPoint x="96" y="120" />
                <mxPoint x="96" y="240" />
              </Array>
            </mxGeometry>
          </mxCell>
        </object>
        <object label="" id="NY_3kWSDoknDq7br82wG-108">
          <mxCell style="endArrow=classic;html=1;rounded=0;" parent="1" edge="1">
            <mxGeometry width="50" height="50" relative="1" as="geometry">
              <mxPoint x="995.52" y="269.67999999999995" as="sourcePoint" />
              <mxPoint x="1112" y="270.18" as="targetPoint" />
            </mxGeometry>
          </mxCell>
        </object>
        <object label="" id="NY_3kWSDoknDq7br82wG-109">
          <mxCell style="endArrow=classic;html=1;rounded=0;" parent="1" edge="1">
            <mxGeometry width="50" height="50" relative="1" as="geometry">
              <mxPoint x="995.5200000000001" y="292.77" as="sourcePoint" />
              <mxPoint x="1112" y="293.18" as="targetPoint" />
            </mxGeometry>
          </mxCell>
        </object>
        <object label="" id="NY_3kWSDoknDq7br82wG-110">
          <mxCell style="endArrow=classic;html=1;rounded=0;" parent="1" edge="1">
            <mxGeometry width="50" height="50" relative="1" as="geometry">
              <mxPoint x="995.5200000000001" y="318.00000000000006" as="sourcePoint" />
              <mxPoint x="1112" y="318.18" as="targetPoint" />
            </mxGeometry>
          </mxCell>
        </object>
        <object label="" id="NY_3kWSDoknDq7br82wG-111">
          <mxCell style="endArrow=classic;html=1;rounded=0;" parent="1" edge="1">
            <mxGeometry width="50" height="50" relative="1" as="geometry">
              <mxPoint x="995.5200000000002" y="342.25000000000006" as="sourcePoint" />
              <mxPoint x="1112" y="342.18" as="targetPoint" />
            </mxGeometry>
          </mxCell>
        </object>
        <mxCell id="NY_3kWSDoknDq7br82wG-36" value="Mem_result" style="text;html=1;strokeColor=none;fillColor=none;align=center;verticalAlign=middle;whiteSpace=wrap;rounded=0;" parent="1" vertex="1">
          <mxGeometry x="635.52" y="290.44000000000005" width="60" height="16.37" as="geometry" />
        </mxCell>
        <mxCell id="NY_3kWSDoknDq7br82wG-119" value="" style="endArrow=classic;html=1;rounded=0;" parent="1" edge="1">
          <mxGeometry width="50" height="50" relative="1" as="geometry">
            <mxPoint x="770" y="366.18" as="sourcePoint" />
            <mxPoint x="866" y="498.18" as="targetPoint" />
            <Array as="points">
              <mxPoint x="770" y="498.18" />
            </Array>
          </mxGeometry>
        </mxCell>
        <mxCell id="NY_3kWSDoknDq7br82wG-121" value="" style="endArrow=classic;html=1;rounded=0;exitX=1;exitY=0.75;exitDx=0;exitDy=0;" parent="1" source="Wm2ZC4gTrtieUDYn15wP-9" edge="1">
          <mxGeometry width="50" height="50" relative="1" as="geometry">
            <mxPoint x="765.5576800000001" y="522.0798400000001" as="sourcePoint" />
            <mxPoint x="866.15" y="522.0600000000001" as="targetPoint" />
          </mxGeometry>
        </mxCell>
        <mxCell id="NY_3kWSDoknDq7br82wG-122" value="&lt;font style=&quot;font-size: 8px;&quot;&gt;mul_result_e2_i[31:0]&lt;/font&gt;" style="text;html=1;strokeColor=none;fillColor=none;align=center;verticalAlign=middle;whiteSpace=wrap;rounded=0;" parent="1" vertex="1">
          <mxGeometry x="772.78" y="512" width="88.5" height="6" as="geometry" />
        </mxCell>
        <mxCell id="NY_3kWSDoknDq7br82wG-123" value="" style="endArrow=classic;html=1;rounded=0;entryX=0.885;entryY=1.024;entryDx=0;entryDy=0;entryPerimeter=0;" parent="1" target="CrL6x26H0blfocWsYmCC-10" edge="1">
          <mxGeometry width="50" height="50" relative="1" as="geometry">
            <mxPoint x="740" y="474.18" as="sourcePoint" />
            <mxPoint x="916.02" y="540.6" as="targetPoint" />
            <Array as="points">
              <mxPoint x="740" y="480.18" />
              <mxPoint x="698" y="480.18" />
              <mxPoint x="698" y="546.18" />
            </Array>
          </mxGeometry>
        </mxCell>
        <mxCell id="NY_3kWSDoknDq7br82wG-124" value="&lt;font style=&quot;font-size: 8px;&quot;&gt;mem_result_e2_i[31:0]&lt;/font&gt;" style="text;html=1;strokeColor=none;fillColor=none;align=center;verticalAlign=middle;whiteSpace=wrap;rounded=0;" parent="1" vertex="1">
          <mxGeometry x="823.52" y="536.18" width="78.5" height="6" as="geometry" />
        </mxCell>
        <mxCell id="NY_3kWSDoknDq7br82wG-125" value="&lt;font style=&quot;font-size: 8px;&quot;&gt;result_e2_o[31:0]&lt;/font&gt;" style="text;html=1;strokeColor=none;fillColor=none;align=center;verticalAlign=middle;whiteSpace=wrap;rounded=0;" parent="1" vertex="1">
          <mxGeometry x="980" y="519" width="47" height="8.59" as="geometry" />
        </mxCell>
        <mxCell id="NY_3kWSDoknDq7br82wG-126" value="" style="endArrow=classic;html=1;rounded=0;exitX=0.505;exitY=0;exitDx=0;exitDy=0;exitPerimeter=0;" parent="1" source="CrL6x26H0blfocWsYmCC-10" edge="1">
          <mxGeometry width="50" height="50" relative="1" as="geometry">
            <mxPoint x="947.15" y="529.77" as="sourcePoint" />
            <mxPoint x="1046" y="530.18" as="targetPoint" />
          </mxGeometry>
        </mxCell>
        <mxCell id="CrL6x26H0blfocWsYmCC-1" value="" style="endArrow=classic;html=1;rounded=0;entryX=0.168;entryY=1.031;entryDx=0;entryDy=0;entryPerimeter=0;" parent="1" target="CrL6x26H0blfocWsYmCC-2" edge="1">
          <mxGeometry width="50" height="50" relative="1" as="geometry">
            <mxPoint x="782" y="342.18" as="sourcePoint" />
            <mxPoint x="866" y="438.18" as="targetPoint" />
            <Array as="points">
              <mxPoint x="782" y="438.18" />
            </Array>
          </mxGeometry>
        </mxCell>
        <mxCell id="CrL6x26H0blfocWsYmCC-2" value="" style="shape=trapezoid;perimeter=trapezoidPerimeter;whiteSpace=wrap;html=1;fixedSize=1;direction=south;size=12;" parent="1" vertex="1">
          <mxGeometry x="884.15" y="431" width="17.37" height="42" as="geometry" />
        </mxCell>
        <mxCell id="CrL6x26H0blfocWsYmCC-3" value="&lt;font style=&quot;font-size: 8px;&quot;&gt;mem_exception_e2_i[5:0]&lt;/font&gt;" style="text;html=1;strokeColor=none;fillColor=none;align=center;verticalAlign=middle;whiteSpace=wrap;rounded=0;" parent="1" vertex="1">
          <mxGeometry x="784.15" y="451" width="86.85" height="8.9" as="geometry" />
        </mxCell>
        <object label="" id="CrL6x26H0blfocWsYmCC-4">
          <mxCell style="endArrow=classic;html=1;rounded=0;entryX=0.739;entryY=1.032;entryDx=0;entryDy=0;entryPerimeter=0;exitX=1.013;exitY=0.752;exitDx=0;exitDy=0;exitPerimeter=0;" parent="1" source="Wm2ZC4gTrtieUDYn15wP-8" target="CrL6x26H0blfocWsYmCC-2" edge="1">
            <mxGeometry width="50" height="50" relative="1" as="geometry">
              <mxPoint x="764" y="462.18" as="sourcePoint" />
              <mxPoint x="866" y="462.18" as="targetPoint" />
            </mxGeometry>
          </mxCell>
        </object>
        <mxCell id="CrL6x26H0blfocWsYmCC-5" value="" style="endArrow=classic;html=1;rounded=0;entryX=-0.002;entryY=0.963;entryDx=0;entryDy=0;entryPerimeter=0;" parent="1" target="NY_3kWSDoknDq7br82wG-73" edge="1">
          <mxGeometry width="50" height="50" relative="1" as="geometry">
            <mxPoint x="902" y="450.18" as="sourcePoint" />
            <mxPoint x="920.52" y="451.97" as="targetPoint" />
          </mxGeometry>
        </mxCell>
        <mxCell id="CrL6x26H0blfocWsYmCC-9" value="" style="shape=trapezoid;perimeter=trapezoidPerimeter;whiteSpace=wrap;html=1;fixedSize=1;direction=south;size=12;" parent="1" vertex="1">
          <mxGeometry x="867.15" y="488.99999999999994" width="17.37" height="42" as="geometry" />
        </mxCell>
        <mxCell id="CrL6x26H0blfocWsYmCC-10" value="" style="shape=trapezoid;perimeter=trapezoidPerimeter;whiteSpace=wrap;html=1;fixedSize=1;direction=south;size=12;" parent="1" vertex="1">
          <mxGeometry x="914.65" y="508.99999999999994" width="17.37" height="42" as="geometry" />
        </mxCell>
        <mxCell id="CrL6x26H0blfocWsYmCC-11" value="" style="endArrow=classic;html=1;rounded=0;" parent="1" edge="1">
          <mxGeometry width="50" height="50" relative="1" as="geometry">
            <mxPoint x="885.34" y="512.88" as="sourcePoint" />
            <mxPoint x="914.52" y="512.9999999999999" as="targetPoint" />
          </mxGeometry>
        </mxCell>
        <mxCell id="CrL6x26H0blfocWsYmCC-12" value="&lt;font style=&quot;font-size: 8px;&quot;&gt;result_e2_q[31:0]&lt;/font&gt;" style="text;html=1;strokeColor=none;fillColor=none;align=center;verticalAlign=middle;whiteSpace=wrap;rounded=0;" parent="1" vertex="1">
          <mxGeometry x="792.9" y="486.18" width="62.1" height="9.82" as="geometry" />
        </mxCell>
        <mxCell id="k3HSqFjvh7gFm4lRlUS6-2" value="&lt;font style=&quot;font-size: 8px;&quot;&gt;csr_waddr_wb_o[11:0]&lt;/font&gt;" style="text;html=1;strokeColor=none;fillColor=none;align=center;verticalAlign=middle;whiteSpace=wrap;rounded=0;" parent="1" vertex="1">
          <mxGeometry x="1018.52" y="354.77" width="38" height="4.5" as="geometry" />
        </mxCell>
        <object label="" id="k3HSqFjvh7gFm4lRlUS6-3">
          <mxCell style="endArrow=classic;html=1;rounded=0;" parent="1" edge="1">
            <mxGeometry width="50" height="50" relative="1" as="geometry">
              <mxPoint x="995.5200000000002" y="365.11" as="sourcePoint" />
              <mxPoint x="1112" y="365.03999999999996" as="targetPoint" />
            </mxGeometry>
          </mxCell>
        </object>
        <object label="" id="p-W_HCnKUesgTFCDDKNF-7">
          <mxCell style="endArrow=classic;html=1;rounded=0;exitX=0.969;exitY=-0.005;exitDx=0;exitDy=0;exitPerimeter=0;" parent="1" source="NY_3kWSDoknDq7br82wG-11" edge="1">
            <mxGeometry width="50" height="50" relative="1" as="geometry">
              <mxPoint x="380" y="317.18" as="sourcePoint" />
              <mxPoint x="626.52" y="317.37" as="targetPoint" />
            </mxGeometry>
          </mxCell>
        </object>
        <mxCell id="p-W_HCnKUesgTFCDDKNF-8" value="issue" style="rounded=1;whiteSpace=wrap;html=1;arcSize=0;" parent="1" vertex="1">
          <mxGeometry x="146" y="169" width="46.28" height="282" as="geometry" />
        </mxCell>
        <mxCell id="p-W_HCnKUesgTFCDDKNF-11" value="Bypass" style="rounded=1;whiteSpace=wrap;html=1;" parent="1" vertex="1">
          <mxGeometry x="1047" y="514" width="65" height="32" as="geometry" />
        </mxCell>
        <mxCell id="Wm2ZC4gTrtieUDYn15wP-1" value="CSR" style="rounded=1;whiteSpace=wrap;html=1;" parent="1" vertex="1">
          <mxGeometry x="423.72" y="340.91" width="46.28" height="55.01" as="geometry" />
        </mxCell>
        <mxCell id="Wm2ZC4gTrtieUDYn15wP-2" value="DIV" style="rounded=1;whiteSpace=wrap;html=1;" parent="1" vertex="1">
          <mxGeometry x="423.72" y="407.18" width="46.28" height="18.76" as="geometry" />
        </mxCell>
        <mxCell id="Wm2ZC4gTrtieUDYn15wP-4" value="ALU" style="rounded=1;whiteSpace=wrap;html=1;" parent="1" vertex="1">
          <mxGeometry x="423.72" y="430.24" width="46.28" height="18.76" as="geometry" />
        </mxCell>
        <mxCell id="Wm2ZC4gTrtieUDYn15wP-8" value="LSU" style="rounded=1;whiteSpace=wrap;html=1;" parent="1" vertex="1">
          <mxGeometry x="726.26" y="425.8" width="27.92" height="48.38" as="geometry" />
        </mxCell>
        <mxCell id="Wm2ZC4gTrtieUDYn15wP-9" value="MUL" style="rounded=1;whiteSpace=wrap;html=1;" parent="1" vertex="1">
          <mxGeometry x="726.26" y="485.81" width="27.92" height="48.38" as="geometry" />
        </mxCell>
        <object label="" id="nUQJmSKrAlSmRkEA1qly-5">
          <mxCell style="endArrow=classic;html=1;rounded=0;fillColor=#e51400;strokeColor=#FF0000;strokeWidth=2;entryX=-0.007;entryY=0.783;entryDx=0;entryDy=0;exitX=1.011;exitY=0.763;exitDx=0;exitDy=0;exitPerimeter=0;entryPerimeter=0;" edge="1" parent="1" source="p-W_HCnKUesgTFCDDKNF-8" target="Wm2ZC4gTrtieUDYn15wP-1">
            <mxGeometry width="50" height="50" relative="1" as="geometry">
              <mxPoint x="191.41" y="379" as="sourcePoint" />
              <mxPoint x="301.49" y="379.00000000000006" as="targetPoint" />
            </mxGeometry>
          </mxCell>
        </object>
        <mxCell id="nUQJmSKrAlSmRkEA1qly-6" value="&lt;font style=&quot;font-size: 8px;&quot;&gt;csr_writeback_exception_o[5:0]&lt;/font&gt;" style="text;html=1;strokeColor=none;fillColor=none;align=center;verticalAlign=middle;whiteSpace=wrap;rounded=0;" vertex="1" parent="1">
          <mxGeometry x="183.28" y="372" width="135.67" height="8" as="geometry" />
        </mxCell>
      </root>
    </mxGraphModel>
  </diagram>
</mxfile>
